<?xml version="1.0" encoding="utf-8"?>
<!-- Generator: Adobe Illustrator 23.0.3, SVG Export Plug-In . SVG Version: 6.00 Build 0)  -->
<svg version="1.1" id="Calque_1" xmlns="http://www.w3.org/2000/svg" xmlns:xlink="http://www.w3.org/1999/xlink" x="0px" y="0px"
	 viewBox="0 0 312.5 312.5" style="enable-background:new 0 0 312.5 312.5;" xml:space="preserve">
<style type="text/css">
	.st0{stroke:#000000;stroke-miterlimit:10;}
</style>
<g id="SvgjsG4148" transform="matrix(1.5585413392436143,0,0,1.5585413392436143,0,0)">
	<path d="M102.4,17.3c-45.4,0-82.3,36.9-82.3,82.3s36.9,82.3,82.3,82.3s82.3-36.9,82.3-82.3S147.8,17.3,102.4,17.3z M102.4,177.8
		c-43.1,0-78.2-35.1-78.2-78.2s35.1-78.2,78.2-78.2s78.2,35.1,78.2,78.2S145.5,177.8,102.4,177.8z"/>
</g>
<g id="SvgjsG4149" transform="matrix(0.8766482677231052,0,0,0.8766482677231052,112.48401915394065,90.45330006352208)">
	<title  xmlns="http://www.w3.org/2000/svg">Legacy icon pack vol.1</title>
	<path class="st0" d="M104.2,80.4V10.9c-0.1-4.2-3.7-7.6-8.3-7.6H9.5C5,3.3,1.3,6.7,1.2,10.9v69.6c0,0.6,0.5,1,1.1,1h100.8
		C103.7,81.4,104.2,81,104.2,80.4z M15.3,5.2h75.3v24.2H56.3V25c0-1.5-1.4-2.8-3.1-2.8h-1.1c-1.7,0-3.1,1.2-3.2,2.8v4.4H15.3V5.2z
		 M51,50.8h3.3c3.7,0,6.8-2.6,7.2-6c0-0.2,0-0.5,0-0.7v-2.4h29v27.2H15.3V41.8h28.5v2.4C43.8,47.8,47,50.8,51,50.8z M59.4,40.8v3.4
		c0,2.6-2.3,4.7-5.1,4.7h-3.3c-2.8,0-5.1-2.1-5.1-4.7v-7.7h13.4V40.8z M51.2,34.5V25c0-0.5,0.5-0.8,1-0.8h1.1c0.5,0,0.9,0.4,0.9,0.8
		v9.5H51.2z M3.4,10.9c0-3.1,2.8-5.6,6.1-5.6h3.6v24.1H3.4L3.4,10.9z M102,79.4H3.4v-48h10.7h0.1h0.1h34.8v3.1h-4.2
		c-0.6,0-1.1,0.4-1.1,1v4.3H14.2c-0.6,0-1.1,0.4-1.1,1v29.1c0,0.6,0.5,1,1.1,1h77.4c0.6,0,1.1-0.4,1.1-1V40.8c0-0.6-0.5-1-1.1-1
		H61.6v-4.3c0-0.6-0.5-1-1.1-1h-4.2v-3.1h35.2h0.1h0.1H102L102,79.4z M102,29.4h-9.3V5.2h3.2c3.4,0,6.1,2.5,6.1,5.6L102,29.4z"/>
	<path class="st0" d="M52.7,39.8c-0.6,0-1.1,0.4-1.1,1v4.1c0,0.6,0.5,1,1.1,1c0.6,0,1.1-0.4,1.1-1v-4.1
		C53.8,40.2,53.3,39.8,52.7,39.8z"/>
</g>
<g id="SvgjsG4150" transform="matrix(0.7964066427819207,0,0,0.7964066427819207,55.58586894069993,180.4306916838357)">
	<path d="M26.1-4.4v5.3h-8.6v23.3h-6.3V0.8H2.7v-5.3C2.7-4.4,26.1-4.4,26.1-4.4z M45.7-4.4c2.4,0,4.4,0.7,6,2.2S54,1.1,54,3.4
		c0,3.6-1.5,6-4.5,7.2v0.1c1,0.3,1.8,0.8,2.4,1.5c0.6,0.7,1,1.5,1.3,2.4c0.3,0.9,0.5,2.4,0.6,4.4c0.1,2.6,0.5,4.4,1.1,5.2h-6.3
		c-0.3-0.9-0.6-2.5-0.8-5c-0.2-2.6-0.7-4.2-1.4-5c-0.7-0.8-1.9-1.2-3.5-1.2h-6.3v11.2h-6.3V-4.4L45.7-4.4L45.7-4.4z M43.5,8.5
		c1.3,0,2.4-0.3,3.1-0.9c0.8-0.6,1.1-1.7,1.1-3.2c0-1.4-0.4-2.5-1.1-3.1s-1.8-0.9-3.2-0.9h-6.9v8H43.5z M81.4-4.4v5.3H66.3V7h13.8
		v4.9H66.3v7h15.4v5.3H60.1V-4.4C60.1-4.4,81.4-4.4,81.4-4.4z M101.1-4.4l10.7,28.6h-6.5l-2.2-6.4H92.4l-2.2,6.4h-6.4L94.7-4.4
		C94.7-4.4,101.1-4.4,101.1-4.4z M97.8,2.6l-3.7,10.5h7.4L97.8,2.6L97.8,2.6z M125-5.1c3.5,0,6.3,0.8,8.3,2.4
		c2.1,1.6,3.1,3.9,3.1,6.8h-6.1c-0.1-1.4-0.6-2.5-1.5-3.2c-0.9-0.7-2.3-1.1-4.1-1.1c-1.3,0-2.4,0.3-3.2,0.9S120.4,2,120.4,3
		c0,0.8,0.2,1.4,0.7,1.8c0.5,0.4,1.2,0.7,2.1,1c0.9,0.3,2.5,0.7,4.8,1.3c2.4,0.6,4.2,1.2,5.5,1.9c1.3,0.7,2.3,1.6,2.9,2.7s1,2.4,1,4
		c0,1.8-0.5,3.4-1.4,4.8c-1,1.4-2.4,2.5-4.2,3.2c-1.8,0.7-3.9,1.1-6.2,1.1c-3.5,0-6.5-0.9-8.7-2.7c-2.3-1.8-3.4-4.2-3.4-7.3v-0.2
		h6.1c0,1.7,0.6,3,1.7,3.9c1.1,0.9,2.7,1.4,4.6,1.4c1.7,0,3-0.3,4.1-0.9c1-0.6,1.5-1.5,1.5-2.7c0-0.8-0.3-1.4-0.8-2
		c-0.6-0.5-1.3-1-2.2-1.3c-0.9-0.3-2.5-0.8-4.7-1.3c-2.6-0.6-4.4-1.3-5.6-2c-1.2-0.7-2.1-1.6-2.7-2.6s-0.9-2.3-0.9-3.7
		c0-1.8,0.5-3.3,1.5-4.7s2.4-2.3,4-3S123.3-5.1,125-5.1L125-5.1z M148.2-4.4l0,17.9c0,2.1,0.5,3.6,1.4,4.6s2.4,1.5,4.5,1.5
		c2.2,0,3.7-0.5,4.6-1.5s1.3-2.5,1.3-4.6V-4.4h6.3v17.9c0,3.6-1,6.4-3.1,8.4s-5.1,3-9.1,3c-4.1,0-7.2-1-9.2-3s-3-4.8-3-8.4V-4.4
		L148.2-4.4L148.2-4.4z M188-4.4c2.4,0,4.4,0.7,6,2.2s2.4,3.4,2.4,5.7c0,3.6-1.5,6-4.5,7.2v0.1c1,0.3,1.8,0.8,2.4,1.5
		c0.6,0.7,1,1.5,1.3,2.4c0.3,0.9,0.5,2.4,0.6,4.4c0.1,2.6,0.5,4.4,1.1,5.2h-6.3c-0.3-0.9-0.6-2.5-0.8-5c-0.2-2.6-0.7-4.2-1.4-5
		c-0.7-0.8-1.9-1.2-3.5-1.2h-6.3v11.2h-6.3V-4.4L188-4.4L188-4.4z M185.8,8.5c1.3,0,2.4-0.3,3.1-0.9c0.8-0.6,1.1-1.7,1.1-3.2
		c0-1.4-0.4-2.5-1.1-3.1s-1.8-0.9-3.2-0.9h-6.9v8H185.8z M223.7-4.4v5.3h-15.1V7h13.8v4.9h-13.8v7h15.4v5.3h-21.7V-4.4L223.7-4.4
		L223.7-4.4z M244.6-4.4c2.4,0,4.4,0.7,6,2.2s2.4,3.4,2.4,5.7c0,3.6-1.5,6-4.5,7.2v0.1c1,0.3,1.8,0.8,2.4,1.5c0.6,0.7,1,1.5,1.3,2.4
		c0.3,0.9,0.5,2.4,0.6,4.4c0.1,2.6,0.5,4.4,1.1,5.2h-6.3c-0.3-0.9-0.6-2.5-0.8-5c-0.2-2.6-0.7-4.2-1.4-5c-0.7-0.8-1.9-1.2-3.5-1.2
		h-6.3v11.2h-6.3V-4.4L244.6-4.4L244.6-4.4z M242.4,8.5c1.3,0,2.4-0.3,3.1-0.9c0.8-0.6,1.1-1.7,1.1-3.2c0-1.4-0.4-2.5-1.1-3.1
		s-1.8-0.9-3.2-0.9h-6.9v8H242.4z"/>
</g>
</svg>
