<svg xmlns="http://www.w3.org/2000/svg" viewBox="0 0 36.17 37.78"><defs><style>.cls-1{fill:#fff;}</style></defs><title>settings</title><g id="Calque_2" data-name="Calque 2"><g id="Calque_1-2" data-name="Calque 1"><path id="cog" class="cls-1" d="M35.7,23.43l-3.24-1.87a15,15,0,0,0,0-5.35l3.24-1.88a.92.92,0,0,0,.42-1.06A19.11,19.11,0,0,0,32,6.06a.93.93,0,0,0-1.13-.17L27.58,7.76A14.35,14.35,0,0,0,23,5.09V1.35a.92.92,0,0,0-.72-.89,19.14,19.14,0,0,0-8.32,0,.9.9,0,0,0-.71.89V5.1A14.47,14.47,0,0,0,8.58,7.77L5.34,5.9a.9.9,0,0,0-1.13.17A18.86,18.86,0,0,0,0,13.28a.91.91,0,0,0,.42,1.06l3.25,1.88a14.53,14.53,0,0,0,0,5.34L.46,23.44A.92.92,0,0,0,0,24.5a19,19,0,0,0,4.17,7.21.92.92,0,0,0,1.13.17L8.58,30a14.29,14.29,0,0,0,4.63,2.67v3.75a.91.91,0,0,0,.72.89,19.1,19.1,0,0,0,8.31,0,.91.91,0,0,0,.72-.89V32.68A14.88,14.88,0,0,0,27.59,30l3.25,1.87A.88.88,0,0,0,32,31.71a18.93,18.93,0,0,0,4.17-7.21A.94.94,0,0,0,35.7,23.43ZM18.08,25a6.1,6.1,0,1,1,6.09-6.1h0A6.1,6.1,0,0,1,18.08,25Z"/></g></g></svg>