<svg id="Calque_1" data-name="Calque 1" xmlns="http://www.w3.org/2000/svg" viewBox="0 0 56.01 42.74"><defs><style>.cls-1{fill:#fff;stroke:#fff;stroke-miterlimit:10;stroke-width:0.88px;}</style></defs><title>small-logo</title><g id="treasurer"><g id="SvgjsG4149"><path id="Tracé_8" data-name="Tracé 8" class="cls-1" d="M325.61,441.85v-37.2a4.3,4.3,0,0,0-4.44-4.07H274.92a4.33,4.33,0,0,0-4.44,4.07v37.26a.54.54,0,0,0,.56.53h54A.63.63,0,0,0,325.61,441.85ZM278,401.6h40.31v13H300V412.2a1.61,1.61,0,0,0-1.66-1.5h-.59a1.66,1.66,0,0,0-1.71,1.5v2.36H278ZM297.13,426h1.77a3.79,3.79,0,0,0,3.85-3.21v-1.66h15.53V435.7H278V421.19h15.26v1.29a3.72,3.72,0,0,0,3.85,3.53Zm4.5-5.35v1.82A2.63,2.63,0,0,1,298.9,425h-1.77a2.64,2.64,0,0,1-2.73-2.51v-4.12h7.18v2.3Zm-4.39-3.37V412.2a.49.49,0,0,1,.54-.43h.59a.47.47,0,0,1,.48.43v5.09Zm-25.59-12.64a3.17,3.17,0,0,1,3.27-3h1.93v12.9h-5.2Zm52.78,36.67H271.65V415.63h24.47v1.65h-2.25a.55.55,0,0,0-.59.51v2.33H277.43a.55.55,0,0,0-.58.51v15.6a.54.54,0,0,0,.56.54h41.46a.55.55,0,0,0,.58-.51v-15.6a.54.54,0,0,0-.56-.54H302.81v-2.3a.55.55,0,0,0-.57-.53H300v-1.66h24.46Zm0-26.76h-5v-13h1.72a3.13,3.13,0,0,1,3.26,3v10Z" transform="translate(-270.04 -400.14)"/><path id="Tracé_9" data-name="Tracé 9" class="cls-1" d="M298,420.12a.55.55,0,0,0-.58.51v2.22a.59.59,0,0,0,.64.54.58.58,0,0,0,.54-.54v-2.19a.55.55,0,0,0-.56-.54Z" transform="translate(-270.04 -400.14)"/></g></g></svg>